<?xml version="1.0" standalone="no"?>
<!DOCTYPE svg PUBLIC "-//W3C//DTD SVG 20010904//EN"
 "http://www.w3.org/TR/2001/REC-SVG-20010904/DTD/svg10.dtd">
<svg version="1.0" xmlns="http://www.w3.org/2000/svg"
 width="512.000000pt" height="512.000000pt" viewBox="0 0 512.000000 512.000000"
 preserveAspectRatio="xMidYMid meet">
<metadata>
</metadata>
<g transform="translate(0.000000,512.000000) scale(0.100000,-0.100000)"
fill="#000000" stroke="none">
<path d="M1895 4159 c-477 -50 -1014 -303 -1369 -647 -246 -239 -392 -480
-451 -745 -27 -121 -17 -371 19 -492 125 -421 514 -828 1031 -1081 322 -157
623 -236 900 -237 293 -1 534 89 726 270 99 94 161 180 229 318 91 185 142
368 176 630 24 180 24 590 0 770 -32 249 -84 439 -166 611 -66 140 -118 214
-224 319 -167 165 -364 256 -621 285 -101 11 -135 11 -250 -1z m405 -284 c123
-28 213 -78 306 -170 186 -184 270 -455 295 -941 17 -343 -9 -695 -66 -912
-55 -207 -117 -326 -229 -437 -129 -129 -257 -179 -484 -191 -301 -17 -616 53
-927 205 -407 200 -698 485 -824 807 -67 174 -67 474 0 648 58 148 141 275
267 407 155 163 328 287 557 400 225 110 451 178 665 199 125 13 352 5 440
-15z"/>
<path d="M3571 3980 c-18 -4 -45 -17 -60 -27 -32 -25 -71 -80 -71 -103 0 -23
39 -78 71 -102 14 -11 43 -23 65 -28 21 -5 327 -10 680 -10 721 0 718 0 773
68 37 44 40 86 9 132 -13 18 -41 43 -63 54 -39 21 -52 21 -705 23 -366 1 -680
-2 -699 -7z"/>
<path d="M3542 2645 c-42 -18 -89 -71 -98 -107 -8 -41 32 -100 88 -127 44 -21
52 -21 721 -21 547 0 684 3 710 14 49 20 97 80 97 121 0 41 -48 101 -97 121
-49 21 -1373 20 -1421 -1z"/>
<path d="M3571 1330 c-18 -4 -45 -17 -60 -27 -32 -25 -71 -80 -71 -103 0 -23
39 -78 71 -102 14 -11 43 -23 65 -28 21 -5 327 -10 680 -10 721 0 718 0 773
68 37 44 40 86 9 132 -13 18 -41 43 -63 54 -39 21 -52 21 -705 23 -366 1 -680
-2 -699 -7z"/>
</g>
</svg>
