<?xml version="1.0" encoding="iso-8859-1"?>
<!-- Generator: Adobe Illustrator 23.0.2, SVG Export Plug-In . SVG Version: 6.00 Build 0)  -->
<svg version="1.1" id="Calque_1" xmlns="http://www.w3.org/2000/svg" xmlns:xlink="http://www.w3.org/1999/xlink" x="0px" y="0px"
	 viewBox="0 0 80 80" style="enable-background:new 0 0 80 80;" xml:space="preserve">
<g>
	<path d="M2.588,28.453l26.393-11.039c0.848-0.354,1.246-1.325,0.889-2.168s-1.333-1.239-2.18-0.884L1.297,25.401
		c-0.848,0.354-1.246,1.325-0.889,2.168S1.741,28.808,2.588,28.453z"/>
	<path d="M29.527,24.545c-0.464-0.474-1.187-0.646-1.836-0.374L1.297,35.209c-0.848,0.354-1.246,1.325-0.889,2.168
		c0.094,0.222,0.232,0.41,0.399,0.565c0.464,0.474,1.187,0.646,1.836,0.374l26.393-11.039c0.848-0.354,1.246-1.325,0.889-2.168
		C29.832,24.888,29.693,24.699,29.527,24.545z"/>
	<path d="M27.745,34.796L1.352,45.835c-0.848,0.354-1.246,1.325-0.889,2.168c0.357,0.843,1.333,1.239,2.18,0.884l26.393-11.039
		c0.848-0.354,1.246-1.325,0.889-2.168S28.593,34.442,27.745,34.796z"/>
	<path d="M27.745,44.885L1.352,55.923c-0.848,0.354-1.246,1.325-0.889,2.168c0.357,0.843,1.333,1.239,2.18,0.884l26.393-11.039
		c0.848-0.354,1.246-1.325,0.889-2.168S28.593,44.53,27.745,44.885z"/>
	<path d="M27.745,55.229L1.352,66.268c-0.848,0.354-1.246,1.325-0.889,2.168c0.357,0.843,1.333,1.239,2.18,0.884l26.393-11.039
		c0.848-0.354,1.246-1.325,0.889-2.168S28.593,54.875,27.745,55.229z"/>
	<path d="M79.314,32.6c-0.593-2.535-1.791-4.801-3.292-6.806c-1.502-2.007-3.309-3.764-5.175-5.313
		c-2.591-2.147-6.263-4.591-10.359-6.534c-4.098-1.936-8.607-3.388-12.941-3.396c-2.243,0-4.451,0.401-6.467,1.382
		c-2.016,0.977-3.809,2.543-5.189,4.713c-1.53,2.404-2.316,5.068-2.89,7.623c-0.905,4.044-1.341,8.178-1.341,12.311
		c0,3.895,0.388,7.788,1.137,11.606c0.464,2.351,1.151,4.833,2.311,7.095c0.581,1.13,1.283,2.205,2.145,3.166
		c0.861,0.961,1.885,1.806,3.084,2.456c2.101,1.137,4.407,1.497,6.621,1.498c0.979,0,1.944-0.071,2.881-0.183
		c5.565-0.669,10.833-2.732,15.573-5.5c4.137-2.419,8.087-5.507,10.855-9.649c2.025-3.038,3.332-6.642,3.449-10.346l0-0.003
		c0.005-0.168,0.008-0.338,0.008-0.51C79.723,35.006,79.593,33.795,79.314,32.6z M73.492,45.238
		c-2.368,3.553-5.896,6.366-9.767,8.625c-4.435,2.591-9.288,4.469-14.286,5.068c-0.831,0.1-1.665,0.16-2.481,0.159
		c-1.855,0.001-3.586-0.311-5.027-1.094c-0.834-0.453-1.554-1.041-2.192-1.752c-0.956-1.065-1.722-2.414-2.321-3.917
		c-0.6-1.501-1.033-3.149-1.352-4.776c-0.71-3.612-1.076-7.295-1.076-10.971c0-3.901,0.412-7.795,1.262-11.592
		c0.535-2.4,1.247-4.685,2.452-6.569c1.086-1.695,2.372-2.793,3.841-3.513c1.47-0.716,3.153-1.045,5.003-1.045
		c3.565-0.008,7.7,1.262,11.508,3.074c3.81,1.804,7.305,4.133,9.659,6.088c1.725,1.43,3.345,3.02,4.636,4.747
		c1.293,1.729,2.254,3.585,2.72,5.58c0.219,0.936,0.323,1.893,0.323,2.861c0,0.136-0.002,0.274-0.006,0.413
		C76.299,39.605,75.213,42.663,73.492,45.238z"/>
</g>
</svg>
