<?xml version="1.0" encoding="utf-8"?>
<!-- Generator: Adobe Illustrator 23.0.2, SVG Export Plug-In . SVG Version: 6.00 Build 0)  -->
<svg version="1.1" id="Calque_1" xmlns="http://www.w3.org/2000/svg" xmlns:xlink="http://www.w3.org/1999/xlink" x="0px" y="0px"
	 viewBox="0 0 80 80" style="enable-background:new 0 0 80 80;" xml:space="preserve">
<g>
	<path d="M52.8,26.4c-0.6-0.6-1.3-1.2-2.1-1.8V5.4H29.4v19.1c-0.8,0.6-1.5,1.2-2.2,1.9c-3.3,3.3-5.3,7.9-5.3,12.9
		c0,5,2,9.6,5.3,12.9c3.3,3.3,7.8,5.3,12.8,5.3c5,0,9.5-2,12.8-5.3c3.3-3.3,5.3-7.9,5.3-12.9C58.1,34.2,56,29.7,52.8,26.4z M32,8
		h16.2v15c-1.4-0.7-2.9-1.2-4.5-1.6c0,0,0,0,0,0c-0.5-0.1-1.1-0.2-1.6-0.3c-0.1,0-0.1,0-0.2,0C41.2,21.1,40.6,21,40,21c0,0,0,0,0,0
		c0,0,0,0,0,0c-0.1,0-0.1,0-0.2,0c-0.5,0-0.9,0-1.4,0.1c-0.3,0-0.5,0.1-0.8,0.1c-0.2,0-0.5,0.1-0.7,0.1c-0.3,0.1-0.6,0.1-0.9,0.2
		c-0.1,0-0.1,0-0.2,0.1c-1.4,0.3-2.6,0.8-3.9,1.4L32,8L32,8z M51,50.3c-2.8,2.8-6.7,4.6-11,4.6c-4.3,0-8.2-1.8-11-4.6
		c-2.8-2.8-4.5-6.7-4.5-11.1c0-4.3,1.7-8.2,4.5-11.1c0.5-0.6,1.2-1.1,1.8-1.5l0.6-0.4c1.8-1.2,3.8-2,6-2.4c0.2,0,0.4-0.1,0.6-0.1
		c0.2,0,0.5-0.1,0.7-0.1c0.4,0,0.8-0.1,1.2-0.1c0.1,0,0.1,0,0.2,0c0.5,0,1,0,1.5,0.1c0,0,0.1,0,0.1,0c3.6,0.4,6.9,2,9.3,4.5
		c2.8,2.8,4.5,6.7,4.5,11.1C55.5,43.6,53.8,47.5,51,50.3z"/>
	<path d="M57.1,23.8l7.4-7.5c0.5-0.5,0.5-1.3,0-1.8c-0.5-0.5-1.3-0.5-1.8,0L55.3,22c-0.5,0.5-0.5,1.3,0,1.8
		C55.8,24.3,56.6,24.3,57.1,23.8z"/>
	<path d="M40,61.2c-0.7,0-1.3,0.6-1.3,1.3v10.6c0,0.7,0.6,1.3,1.3,1.3c0.7,0,1.3-0.6,1.3-1.3V62.5C41.3,61.8,40.7,61.2,40,61.2z"/>
	<path d="M73.7,38H63.3c-0.7,0-1.3,0.6-1.3,1.3s0.6,1.3,1.3,1.3h10.5c0.7,0,1.3-0.6,1.3-1.3S74.4,38,73.7,38z"/>
	<path d="M18,39.3c0-0.7-0.6-1.3-1.3-1.3H6.3C5.6,38,5,38.6,5,39.3s0.6,1.3,1.3,1.3h10.5C17.5,40.6,18,40,18,39.3z"/>
	<path d="M57.2,54.8c-0.5-0.5-1.3-0.5-1.8,0c-0.5,0.5-0.5,1.3,0,1.8l7.4,7.5c0.5,0.5,1.3,0.5,1.8,0c0.5-0.5,0.5-1.3,0-1.8L57.2,54.8
		z"/>
	<path d="M22.7,23.6c0.5,0.5,1.3,0.5,1.8,0c0.5-0.5,0.5-1.3,0-1.8l-7.4-7.5c-0.5-0.5-1.3-0.5-1.8,0c-0.5,0.5-0.5,1.3,0,1.8
		L22.7,23.6z"/>
	<path d="M22.6,55l-7.4,7.5c-0.5,0.5-0.5,1.3,0,1.8c0.5,0.5,1.3,0.5,1.8,0l7.4-7.5c0.5-0.5,0.5-1.3,0-1.8
		C23.9,54.5,23.1,54.5,22.6,55z"/>
</g>
</svg>
