<?xml version="1.0" standalone="no"?>
<!DOCTYPE svg PUBLIC "-//W3C//DTD SVG 20010904//EN"
 "http://www.w3.org/TR/2001/REC-SVG-20010904/DTD/svg10.dtd">
<svg version="1.0" xmlns="http://www.w3.org/2000/svg"
 width="512.000000pt" height="512.000000pt" viewBox="0 0 512.000000 512.000000"
 preserveAspectRatio="xMidYMid meet">
<metadata>
</metadata>
<g transform="translate(0.000000,512.000000) scale(0.100000,-0.100000)"
fill="#000000" stroke="none">
<path d="M745 4420 c-40 -20 -85 -73 -85 -101 0 -28 69 -98 108 -109 23 -6
208 -10 482 -10 442 0 446 0 490 23 39 19 90 75 90 97 0 15 -46 74 -73 94 -28
21 -39 21 -500 24 -456 2 -473 2 -512 -18z"/>
<path d="M3390 4429 c-32 -13 -68 -47 -86 -81 -13 -24 -13 -32 0 -56 19 -36
44 -58 89 -77 31 -13 103 -15 479 -15 273 0 457 4 480 10 39 11 108 81 108
109 0 28 -45 81 -86 101 -38 19 -61 20 -500 19 -280 0 -469 -4 -484 -10z"/>
<path d="M174 3761 c-44 -11 -90 -46 -106 -81 -10 -23 -19 -30 -40 -30 l-28 0
0 -1430 0 -1430 28 0 c19 -1 33 -10 47 -32 11 -17 33 -41 48 -52 l28 -21 2409
0 2409 0 28 21 c15 11 37 35 48 52 14 22 28 31 48 32 l27 0 0 1430 0 1430 -28
0 c-21 0 -30 7 -41 31 -7 16 -31 42 -54 57 l-41 27 -2375 2 c-1307 0 -2390 -2
-2407 -6z m4666 -1536 l0 -1305 -2280 0 -2280 0 0 1305 0 1305 2280 0 2280 0
0 -1305z"/>
<path d="M3837 2787 c-68 -38 -77 -71 -77 -271 l0 -176 -176 0 c-160 0 -180
-2 -213 -21 -70 -40 -92 -90 -59 -139 45 -67 72 -75 271 -78 l177 -4 0 -169
c0 -186 7 -220 55 -258 45 -35 71 -37 110 -7 62 48 69 71 73 264 l4 172 152 0
c83 0 168 5 188 10 47 13 92 51 108 89 11 27 9 35 -10 66 -40 65 -76 75 -270
75 l-170 0 0 145 c0 179 -11 235 -55 279 -43 43 -65 48 -108 23z"/>
<path d="M738 2320 c-20 -11 -46 -36 -58 -55 -19 -31 -21 -39 -10 -66 17 -39
62 -76 110 -89 26 -7 193 -10 488 -8 430 3 448 4 482 24 96 56 95 138 -1 193
-36 20 -50 21 -505 21 -444 -1 -471 -2 -506 -20z"/>
</g>
</svg>
