<?xml version="1.0" encoding="iso-8859-1"?>
<!-- Generator: Adobe Illustrator 23.0.2, SVG Export Plug-In . SVG Version: 6.00 Build 0)  -->
<svg version="1.1" id="Calque_1" xmlns="http://www.w3.org/2000/svg" xmlns:xlink="http://www.w3.org/1999/xlink" x="0px" y="0px"
	 viewBox="0 0 80 80" style="enable-background:new 0 0 80 80;" xml:space="preserve">
<g>
	<path d="M2.168,22.189l24.558,0.008c0.931,0,1.686-0.766,1.686-1.713c0-0.946-0.754-1.713-1.685-1.714L2.169,18.762
		c-0.931,0-1.686,0.766-1.686,1.713C0.483,21.421,1.237,22.189,2.168,22.189z"/>
	<path d="M2.144,31.613l24.558,0.008c0.931,0,1.686-0.766,1.686-1.713c0-0.946-0.754-1.713-1.685-1.714L2.145,28.187
		c-0.931,0-1.686,0.766-1.686,1.713C0.459,30.846,1.213,31.613,2.144,31.613z"/>
	<path d="M26.758,38.278L2.2,38.269c-0.931,0-1.686,0.766-1.686,1.713s0.754,1.713,1.685,1.714l24.558,0.008
		c0.931,0,1.686-0.766,1.686-1.713C28.443,39.045,27.688,38.278,26.758,38.278z"/>
	<path d="M2.145,51.314l24.558,0.008c0.931,0,1.686-0.766,1.686-1.713s-0.754-1.713-1.685-1.714L2.146,47.888
		c-0.931,0-1.686,0.766-1.686,1.713C0.459,50.546,1.214,51.314,2.145,51.314z"/>
	<path d="M26.744,57.764L2.186,57.756c-0.931,0-1.686,0.766-1.686,1.713c0,0.946,0.754,1.713,1.685,1.714l24.558,0.008
		c0.931,0,1.686-0.766,1.686-1.713C28.429,58.532,27.675,57.765,26.744,57.764z"/>
	<path d="M79.127,35.989c-0.6-2.624-1.814-4.969-3.333-7.044c-1.521-2.077-3.35-3.896-5.239-5.499
		c-2.623-2.222-6.341-4.751-10.488-6.763c-4.149-2.004-8.714-3.506-13.101-3.515c-2.271,0-4.506,0.415-6.547,1.431
		c-2.041,1.011-3.856,2.632-5.253,4.878c-1.549,2.488-2.345,5.245-2.926,7.89c-0.916,4.186-1.358,8.465-1.358,12.742
		c0,4.031,0.392,8.06,1.151,12.011c0.469,2.433,1.165,5.002,2.339,7.343c0.588,1.169,1.299,2.282,2.172,3.277
		c0.872,0.994,1.908,1.869,3.122,2.542c2.127,1.176,4.462,1.55,6.702,1.551c0.991,0,1.969-0.074,2.917-0.19
		c5.634-0.693,10.968-2.828,15.766-5.692c4.188-2.503,8.188-5.7,10.99-9.986c2.05-3.145,3.373-6.874,3.491-10.708l0-0.002
		c0.005-0.176,0.008-0.354,0.008-0.533C79.541,38.476,79.409,37.224,79.127,35.989z M73.233,49.069
		c-2.396,3.677-5.969,6.588-9.888,8.926c-4.489,2.682-9.403,4.625-14.463,5.245c-0.841,0.103-1.687,0.165-2.513,0.165
		c-1.878,0.001-3.63-0.322-5.089-1.132c-0.845-0.469-1.573-1.078-2.22-1.813c-0.968-1.102-1.743-2.498-2.35-4.054
		c-0.608-1.554-1.046-3.259-1.369-4.943c-0.718-3.739-1.089-7.55-1.089-11.354c0-4.038,0.417-8.068,1.278-11.998
		c0.541-2.484,1.262-4.849,2.482-6.798c1.1-1.755,2.401-2.891,3.889-3.636c1.488-0.741,3.192-1.081,5.065-1.082
		c3.609-0.008,7.795,1.306,11.651,3.181c3.857,1.867,7.396,4.277,9.779,6.301c1.747,1.48,3.386,3.125,4.693,4.913
		c1.309,1.789,2.282,3.71,2.754,5.775c0.221,0.967,0.326,1.957,0.326,2.956c0,0.142-0.002,0.286-0.006,0.431
		C76.074,43.238,74.975,46.403,73.233,49.069z"/>
</g>
</svg>
