<?xml version="1.0" standalone="no"?>
<!DOCTYPE svg PUBLIC "-//W3C//DTD SVG 20010904//EN"
 "http://www.w3.org/TR/2001/REC-SVG-20010904/DTD/svg10.dtd">
<svg version="1.0" xmlns="http://www.w3.org/2000/svg"
 width="512.000000pt" height="512.000000pt" viewBox="0 0 512.000000 512.000000"
 preserveAspectRatio="xMidYMid meet">
<metadata>
</metadata>
<g transform="translate(0.000000,512.000000) scale(0.100000,-0.100000)"
fill="#000000" stroke="none">
<path d="M1232 4413 c-45 -22 -82 -69 -82 -103 0 -35 43 -88 87 -106 26 -11
121 -14 458 -14 l425 0 0 -125 0 -125 -423 0 c-419 0 -423 0 -467 -22 -71 -37
-84 -63 -88 -179 l-4 -99 -173 0 c-242 0 -286 -12 -334 -91 -20 -33 -21 -46
-21 -501 l0 -468 -160 0 -159 0 -3 468 c-3 450 -4 468 -24 502 -26 45 -81 82
-108 74 -36 -11 -74 -43 -88 -74 -10 -23 -19 -30 -40 -30 l-28 0 0 -1065 0
-1065 28 0 c19 -1 33 -10 47 -33 11 -17 35 -41 54 -54 l33 -22 38 19 c21 11
49 36 61 57 l24 38 3 473 3 472 159 0 160 0 0 -474 0 -473 23 -34 c12 -18 38
-44 56 -56 34 -23 37 -23 380 -23 l346 0 335 -281 c184 -155 349 -287 367
-295 47 -21 1687 -21 1736 0 42 17 83 66 97 114 5 20 10 139 10 265 l0 227
104 0 104 0 4 -152 c4 -172 12 -197 75 -245 l36 -28 191 -3 c226 -4 262 3 309
59 19 23 82 153 157 324 120 275 125 285 152 285 l28 0 0 570 0 570 -27 0
c-27 1 -33 12 -153 287 -69 158 -134 301 -145 317 -42 63 -71 71 -271 74 -191
4 -242 -3 -288 -39 -52 -41 -60 -71 -64 -236 l-4 -153 -103 0 -103 0 -4 128
c-4 134 -13 166 -60 209 -42 39 -71 43 -313 43 l-234 0 -3 254 -3 254 -31 39
c-60 75 -47 73 -526 73 l-428 0 0 125 0 125 427 0 c405 0 429 1 467 20 42 20
86 73 86 103 0 24 -60 88 -97 103 -26 12 -210 14 -1005 14 -875 0 -976 -2
-1006 -17z m1878 -967 c0 -246 1 -254 23 -286 50 -75 50 -75 327 -78 l248 -3
4 -127 c5 -152 19 -190 83 -227 41 -25 46 -25 269 -25 258 0 283 6 327 77 22
35 24 51 28 191 l3 152 112 0 112 0 92 -209 92 -210 0 -578 0 -578 -93 -210
-93 -210 -112 -3 -112 -3 0 133 c0 149 -9 193 -47 239 -46 54 -70 59 -307 59
-223 0 -253 -4 -294 -43 -54 -50 -57 -64 -60 -329 l-4 -248 -778 0 -778 0
-339 283 c-186 156 -354 289 -372 295 -23 8 -125 12 -312 12 l-279 0 0 934 0
935 203 3 c226 3 243 8 294 75 26 33 28 45 31 135 l4 98 864 0 864 0 0 -254z"/>
</g>
</svg>
