<?xml version="1.0" standalone="no"?>
<!DOCTYPE svg PUBLIC "-//W3C//DTD SVG 20010904//EN"
 "http://www.w3.org/TR/2001/REC-SVG-20010904/DTD/svg10.dtd">
<svg version="1.0" xmlns="http://www.w3.org/2000/svg"
 width="512.000000pt" height="512.000000pt" viewBox="0 0 512.000000 512.000000"
 preserveAspectRatio="xMidYMid meet">
<metadata>
</metadata>
<g transform="translate(0.000000,512.000000) scale(0.100000,-0.100000)"
fill="#000000" stroke="none">
<path d="M2310 4380 c-400 -67 -738 -239 -1023 -519 -297 -290 -480 -645 -547
-1058 -72 -445 66 -951 366 -1344 78 -103 232 -258 337 -340 390 -304 891
-448 1334 -383 766 111 1384 670 1572 1419 95 383 56 760 -121 1149 -229 503
-685 888 -1228 1036 -218 60 -483 75 -690 40z m525 -231 c149 -22 286 -64 442
-135 302 -138 599 -435 737 -737 113 -249 149 -423 149 -717 0 -294 -36 -468
-149 -717 -138 -302 -435 -599 -737 -737 -250 -114 -422 -150 -717 -150 -111
0 -227 6 -270 13 -362 61 -655 212 -896 462 -233 242 -366 512 -425 859 -16
98 -16 442 0 540 61 362 212 655 462 896 276 265 599 408 994 438 77 6 332 -4
410 -15z"/>
<path d="M2524 3711 c-17 -10 -42 -34 -55 -53 l-24 -33 -3 -685 c-2 -461 0
-697 8 -721 12 -42 80 -109 110 -109 30 0 98 67 110 109 8 24 10 260 8 722
l-3 686 -28 36 c-22 30 -73 67 -89 67 -2 0 -17 -9 -34 -19z"/>
<path d="M2515 1843 c-45 -23 -71 -50 -90 -93 -23 -51 -14 -84 39 -136 70 -71
122 -71 192 0 24 23 46 54 49 69 13 51 -32 125 -96 157 -46 24 -55 24 -94 3z"/>
<path d="M828 4347 c-19 -12 -66 -56 -104 -97 -347 -377 -569 -837 -648 -1346
-22 -140 -22 -548 0 -688 79 -509 301 -969 648 -1346 38 -41 85 -85 104 -97
l36 -22 37 21 c20 11 46 37 57 57 l21 37 -21 35 c-11 19 -52 67 -90 107 -515
544 -713 1394 -508 2178 90 340 277 682 508 926 38 40 79 88 90 107 l21 35
-21 37 c-11 20 -37 46 -57 57 l-37 21 -36 -22z"/>
<path d="M4219 4348 c-20 -11 -46 -37 -57 -57 l-21 -37 21 -35 c11 -19 52 -67
90 -107 138 -146 282 -360 375 -560 285 -609 285 -1375 0 -1984 -93 -200 -237
-414 -375 -560 -38 -40 -79 -88 -90 -107 l-21 -35 21 -37 c11 -20 37 -46 57
-57 l37 -21 36 22 c19 12 66 56 104 97 300 325 510 721 609 1145 46 195 55
289 55 545 0 256 -9 350 -55 545 -100 427 -314 827 -616 1153 -36 39 -81 80
-100 91 l-34 20 -36 -21z"/>
</g>
</svg>
